<svg version="1.1" id="Layer_1" xmlns="http://www.w3.org/2000/svg" xmlns:xlink="http://www.w3.org/1999/xlink" x="0px" y="0px"
	 width="100%" viewBox="0 0 128 128" enable-background="new 0 0 128 128" xml:space="preserve">
<path fill="#FAFCF8" opacity="1.000000" stroke="none" 
	d="
M58.000000,129.000000 
	C39.076580,129.000000 20.153162,129.000000 1.000000,129.000000 
	C1.000000,111.979797 1.000000,94.958557 1.342727,77.608665 
	C4.705985,86.483849 7.374092,95.863174 14.560436,103.883263 
	C17.070761,100.010498 18.897242,96.437828 21.428055,93.464706 
	C25.255096,88.968811 24.329472,85.367531 21.899719,80.247772 
	C17.477983,70.930679 11.725041,65.708557 1.000000,68.000000 
	C1.000000,65.299988 1.000000,62.599972 1.390169,59.577400 
	C10.056702,61.247570 13.751522,59.802410 17.645416,52.987267 
	C19.710831,49.372353 21.813099,45.772598 23.699221,42.064518 
	C24.315029,40.853851 25.020124,38.784172 24.454205,38.027870 
	C21.435974,33.994278 18.027750,30.252512 13.693570,25.164370 
	C10.207502,32.316742 7.273583,38.021854 4.640235,43.862480 
	C3.169070,47.125443 2.196979,50.613419 1.000000,54.000000 
	C1.000000,36.404541 1.000000,18.809080 1.000000,1.000000 
	C19.353676,1.000000 37.708179,1.000000 56.574780,1.391382 
	C56.039532,5.464339 55.240318,9.241013 53.875912,12.801073 
	C52.476826,16.451599 53.236885,18.890154 56.181385,21.509171 
	C65.462685,29.764509 65.282402,29.796478 74.439468,21.241510 
	C76.989899,18.858776 77.688553,16.722719 76.439110,13.379837 
	C74.945282,9.383092 74.116714,5.137697 73.000000,1.000000 
	C91.591431,1.000000 110.182861,1.000000 129.000000,1.000000 
	C129.000000,18.353575 129.000000,35.708130 128.646088,53.394707 
	C125.776909,43.895630 122.624580,34.366653 115.804237,26.459841 
	C103.243546,37.076851 103.194565,37.314537 110.493500,50.866657 
	C111.439865,52.623806 112.682808,54.289234 113.266518,56.159973 
	C114.610359,60.466858 117.831352,60.263962 121.227844,59.894745 
	C123.820351,59.612930 126.409409,59.299416 129.000000,59.000000 
	C129.000000,61.700016 129.000000,64.400032 128.551636,67.680161 
	C118.281273,66.183296 112.139557,70.365860 108.699425,79.458054 
	C107.948570,81.442543 106.383995,83.106911 105.491058,85.054802 
	C105.005455,86.114090 104.588135,87.801880 105.091904,88.620247 
	C108.272720,93.787498 111.720261,98.790573 115.378944,104.298302 
	C121.209084,97.017479 124.663742,89.455193 126.939163,81.260384 
	C127.182571,80.383766 128.292206,79.747673 129.000000,79.000000 
	C129.000000,95.597580 129.000000,112.195160 129.000000,129.000000 
	C110.646294,129.000000 92.291801,129.000000 73.463638,128.619354 
	C74.327370,123.810982 75.468567,119.310905 77.065758,114.978943 
	C78.290749,111.656464 77.379990,109.520027 74.907814,107.167854 
	C64.953995,97.697243 65.102379,97.700775 55.340069,107.282570 
	C52.939365,109.638870 52.572468,111.706772 53.694851,114.774834 
	C55.394138,119.419891 56.590149,124.249062 58.000000,129.000000 
M62.974640,45.279194 
	C60.917553,47.215752 58.758205,49.057110 56.837311,51.120457 
	C55.423843,52.638752 53.547573,54.305153 53.208870,56.149982 
	C51.189133,67.151016 55.821537,76.915970 66.179367,83.326790 
	C69.077385,80.183746 72.360222,77.080910 75.051262,73.529633 
	C76.613632,71.467827 77.681679,68.768013 78.144028,66.205864 
	C78.667068,63.307415 78.343727,60.238792 78.240807,57.249249 
	C78.111702,53.499428 68.044205,44.123512 64.314812,44.213326 
	C64.042885,44.219872 63.779446,44.578651 62.974640,45.279194 
M86.105812,55.046738 
	C83.352150,67.566513 86.704399,74.110382 99.914825,81.279800 
	C102.891663,75.584236 105.910324,69.907166 108.799454,64.164932 
	C109.191422,63.385872 109.324158,62.048714 108.916428,61.362286 
	C105.490028,55.593834 101.909515,49.916924 98.163216,43.869980 
	C93.912743,47.757492 90.253372,51.104378 86.105812,55.046738 
M37.889278,76.375153 
	C51.071766,68.870354 46.684097,52.124825 32.196308,44.103619 
	C28.738045,49.674339 25.234367,55.257210 21.826057,60.897705 
	C21.463530,61.497658 21.340406,62.599205 21.645105,63.190254 
	C24.730841,69.175926 27.928778,75.103745 31.330288,81.489029 
	C33.731403,79.642235 35.542965,78.248894 37.889278,76.375153 
M104.449509,102.029419 
	C103.022224,100.274391 101.594948,98.519363 100.210808,96.817375 
	C89.959305,104.306839 83.196373,113.245430 82.709305,126.399055 
	C93.592834,123.323700 102.610390,117.924408 110.599937,109.866447 
	C108.535805,107.231255 106.718094,104.910652 104.449509,102.029419 
M89.551880,5.872877 
	C86.846169,4.979474 84.140457,4.086071 81.434746,3.192667 
	C81.044365,3.552146 80.653984,3.911625 80.263603,4.271104 
	C82.272705,9.399072 83.540558,15.017401 86.511826,19.508858 
	C89.166016,23.521023 93.601181,26.413649 97.479088,29.514360 
	C98.391922,30.244244 100.654984,30.447575 101.556915,29.823580 
	C105.069672,27.393276 108.284897,24.532919 111.753380,21.716776 
	C104.855453,13.862410 97.817474,9.642565 89.551880,5.872877 
M31.173927,119.384949 
	C36.143700,121.766754 41.113476,124.148560 46.707928,126.829750 
	C46.303474,112.921852 39.420605,104.201607 29.963940,97.007225 
	C29.525108,97.179367 29.121761,97.210098 28.941206,97.426620 
	C17.238951,111.459366 16.162218,108.259628 31.173927,119.384949 
M43.106812,19.486549 
	C45.240852,14.336204 47.374893,9.185858 49.508938,4.035512 
	C49.000515,3.770384 48.492096,3.505256 47.983677,3.240128 
	C37.119408,6.568034 27.287209,11.622925 19.686110,20.053391 
	C23.306185,23.847450 26.653330,27.355463 30.167795,31.038836 
	C34.416470,27.252787 38.496502,23.617012 43.106812,19.486549 
M77.743866,82.169273 
	C75.004028,84.759499 72.264191,87.349724 69.804909,89.674706 
	C74.133575,94.178192 78.115921,98.321365 81.602768,101.949036 
	C85.891830,97.888779 90.153214,93.854729 94.609627,89.636047 
	C91.680023,86.956207 88.520660,84.479584 85.879471,81.537750 
	C83.051201,78.387520 80.757919,78.531395 77.743866,82.169273 
M44.130650,98.423538 
	C46.152386,99.463692 47.003143,103.871483 50.385929,100.946785 
	C54.231018,97.622398 57.798161,93.976540 61.944214,90.034927 
	C57.656582,86.195442 54.070484,82.826645 50.269005,79.721550 
	C49.563477,79.145264 47.577621,79.134758 46.886265,79.709496 
	C43.114094,82.845360 39.561874,86.245796 35.178787,90.244194 
	C38.276703,93.058258 40.950863,95.487396 44.130650,98.423538 
M40.921238,31.425474 
	C39.253326,32.916046 37.585415,34.406620 36.765144,35.139679 
	C40.906734,39.677483 44.678844,43.810459 48.887806,48.422077 
	C52.753124,44.340336 56.553524,40.327148 60.610146,36.043396 
	C58.619087,34.139198 57.089985,32.661495 55.544407,31.201223 
	C47.599613,23.694944 49.170353,24.257336 40.921238,31.425474 
M82.406090,47.858295 
	C86.664078,44.100937 90.922066,40.343578 95.461548,36.337818 
	C91.346512,32.901093 88.019104,29.938402 84.464333,27.279718 
	C83.550560,26.596296 81.419518,26.241583 80.703888,26.811317 
	C77.130539,29.656187 73.842346,32.859245 70.023544,36.327057 
	C74.221703,40.454754 77.962608,44.132874 82.406090,47.858295 
z"/>
<path fill="#0DC972" opacity="1.000000" stroke="none" 
	d="
M129.000000,78.541931 
	C128.292206,79.747673 127.182571,80.383766 126.939163,81.260384 
	C124.663742,89.455193 121.209084,97.017479 115.378944,104.298302 
	C111.720261,98.790573 108.272720,93.787498 105.091904,88.620247 
	C104.588135,87.801880 105.005455,86.114090 105.491058,85.054802 
	C106.383995,83.106911 107.948570,81.442543 108.699425,79.458054 
	C112.139557,70.365860 118.281273,66.183296 128.551636,68.130142 
	C129.000000,71.361290 129.000000,74.722572 129.000000,78.541931 
z"/>
<path fill="#85C15D" opacity="1.000000" stroke="none" 
	d="
M58.466118,129.000000 
	C56.590149,124.249062 55.394138,119.419891 53.694851,114.774834 
	C52.572468,111.706772 52.939365,109.638870 55.340069,107.282570 
	C65.102379,97.700775 64.953995,97.697243 74.907814,107.167854 
	C77.379990,109.520027 78.290749,111.656464 77.065758,114.978943 
	C75.468567,119.310905 74.327370,123.810982 72.994980,128.619354 
	C68.310745,129.000000 63.621487,129.000000 58.466118,129.000000 
z"/>
<path fill="#FFBB4C" opacity="1.000000" stroke="none" 
	d="
M1.000000,68.449982 
	C11.725041,65.708557 17.477983,70.930679 21.899719,80.247772 
	C24.329472,85.367531 25.255096,88.968811 21.428055,93.464706 
	C18.897242,96.437828 17.070761,100.010498 14.560436,103.883263 
	C7.374092,95.863174 4.705985,86.483849 1.342727,77.140007 
	C1.000000,74.299988 1.000000,71.599968 1.000000,68.449982 
z"/>
<path fill="#0CC972" opacity="1.000000" stroke="none" 
	d="
M129.000000,58.583332 
	C126.409409,59.299416 123.820351,59.612930 121.227844,59.894745 
	C117.831352,60.263962 114.610359,60.466858 113.266518,56.159973 
	C112.682808,54.289234 111.439865,52.623806 110.493500,50.866657 
	C103.194565,37.314537 103.243546,37.076851 115.804237,26.459841 
	C122.624580,34.366653 125.776909,43.895630 128.646088,53.863365 
	C129.000000,55.388889 129.000000,56.777779 129.000000,58.583332 
z"/>
<path fill="#85C15E" opacity="1.000000" stroke="none" 
	d="
M72.533142,1.000000 
	C74.116714,5.137697 74.945282,9.383092 76.439110,13.379837 
	C77.688553,16.722719 76.989899,18.858776 74.439468,21.241510 
	C65.282402,29.796478 65.462685,29.764509 56.181385,21.509171 
	C53.236885,18.890154 52.476826,16.451599 53.875912,12.801073 
	C55.240318,9.241013 56.039532,5.464339 57.043438,1.391382 
	C62.022091,1.000000 67.044182,1.000000 72.533142,1.000000 
z"/>
<path fill="#FFBB4C" opacity="1.000000" stroke="none" 
	d="
M1.000000,54.416664 
	C2.196979,50.613419 3.169070,47.125443 4.640235,43.862480 
	C7.273583,38.021854 10.207502,32.316742 13.693570,25.164370 
	C18.027750,30.252512 21.435974,33.994278 24.454205,38.027870 
	C25.020124,38.784172 24.315029,40.853851 23.699221,42.064518 
	C21.813099,45.772598 19.710831,49.372353 17.645416,52.987267 
	C13.751522,59.802410 10.056702,61.247570 1.390169,59.127419 
	C1.000000,57.611111 1.000000,56.222221 1.000000,54.416664 
z"/>
<path fill="#84C15C" opacity="1.000000" stroke="none" 
	d="
M63.243347,45.026428 
	C63.779446,44.578651 64.042885,44.219872 64.314812,44.213326 
	C68.044205,44.123512 78.111702,53.499428 78.240807,57.249249 
	C78.343727,60.238792 78.667068,63.307415 78.144028,66.205864 
	C77.681679,68.768013 76.613632,71.467827 75.051262,73.529633 
	C72.360222,77.080910 69.077385,80.183746 66.179367,83.326790 
	C55.821537,76.915970 51.189133,67.151016 53.208870,56.149982 
	C53.547573,54.305153 55.423843,52.638752 56.837311,51.120457 
	C58.758205,49.057110 60.917553,47.215752 63.243347,45.026428 
z"/>
<path fill="#09C870" opacity="1.000000" stroke="none" 
	d="
M86.349907,54.749001 
	C90.253372,51.104378 93.912743,47.757492 98.163216,43.869980 
	C101.909515,49.916924 105.490028,55.593834 108.916428,61.362286 
	C109.324158,62.048714 109.191422,63.385872 108.799454,64.164932 
	C105.910324,69.907166 102.891663,75.584236 99.914825,81.279800 
	C86.704399,74.110382 83.352150,67.566513 86.349907,54.749001 
z"/>
<path fill="#FFBA4B" opacity="1.000000" stroke="none" 
	d="
M37.621902,76.615356 
	C35.542965,78.248894 33.731403,79.642235 31.330288,81.489029 
	C27.928778,75.103745 24.730841,69.175926 21.645105,63.190254 
	C21.340406,62.599205 21.463530,61.497658 21.826057,60.897705 
	C25.234367,55.257210 28.738045,49.674339 32.196308,44.103619 
	C46.684097,52.124825 51.071766,68.870354 37.621902,76.615356 
z"/>
<path fill="#0DC973" opacity="1.000000" stroke="none" 
	d="
M104.674942,102.309731 
	C106.718094,104.910652 108.535805,107.231255 110.599937,109.866447 
	C102.610390,117.924408 93.592834,123.323700 82.709305,126.399055 
	C83.196373,113.245430 89.959305,104.306839 100.210808,96.817375 
	C101.594948,98.519363 103.022224,100.274391 104.674942,102.309731 
z"/>
<path fill="#88C361" opacity="1.000000" stroke="none" 
	d="
M89.903275,6.014246 
	C97.817474,9.642565 104.855453,13.862410 111.753380,21.716776 
	C108.284897,24.532919 105.069672,27.393276 101.556915,29.823580 
	C100.654984,30.447575 98.391922,30.244244 97.479088,29.514360 
	C93.601181,26.413649 89.166016,23.521023 86.511826,19.508858 
	C83.540558,15.017401 82.272705,9.399072 80.263603,4.271104 
	C80.653984,3.911625 81.044365,3.552146 81.434746,3.192667 
	C84.140457,4.086071 86.846169,4.979474 89.903275,6.014246 
z"/>
<path fill="#88C361" opacity="1.000000" stroke="none" 
	d="
M30.871801,119.182007 
	C16.162218,108.259628 17.238951,111.459366 28.941206,97.426620 
	C29.121761,97.210098 29.525108,97.179367 29.963940,97.007225 
	C39.420605,104.201607 46.303474,112.921852 46.707928,126.829750 
	C41.113476,124.148560 36.143700,121.766754 30.871801,119.182007 
z"/>
<path fill="#FFBB4D" opacity="1.000000" stroke="none" 
	d="
M42.841675,19.733894 
	C38.496502,23.617012 34.416470,27.252787 30.167795,31.038836 
	C26.653330,27.355463 23.306185,23.847450 19.686110,20.053391 
	C27.287209,11.622925 37.119408,6.568034 47.983677,3.240128 
	C48.492096,3.505256 49.000515,3.770384 49.508938,4.035512 
	C47.374893,9.185858 45.240852,14.336204 42.841675,19.733894 
z"/>
<path fill="#0DC973" opacity="1.000000" stroke="none" 
	d="
M78.015518,81.928749 
	C80.757919,78.531395 83.051201,78.387520 85.879471,81.537750 
	C88.520660,84.479584 91.680023,86.956207 94.609627,89.636047 
	C90.153214,93.854729 85.891830,97.888779 81.602768,101.949036 
	C78.115921,98.321365 74.133575,94.178192 69.804909,89.674706 
	C72.264191,87.349724 75.004028,84.759499 78.015518,81.928749 
z"/>
<path fill="#88C361" opacity="1.000000" stroke="none" 
	d="
M43.877838,98.170036 
	C40.950863,95.487396 38.276703,93.058258 35.178787,90.244194 
	C39.561874,86.245796 43.114094,82.845360 46.886265,79.709496 
	C47.577621,79.134758 49.563477,79.145264 50.269005,79.721550 
	C54.070484,82.826645 57.656582,86.195442 61.944214,90.034927 
	C57.798161,93.976540 54.231018,97.622398 50.385929,100.946785 
	C47.003143,103.871483 46.152386,99.463692 43.877838,98.170036 
z"/>
<path fill="#FFBC4F" opacity="1.000000" stroke="none" 
	d="
M41.198151,31.195019 
	C49.170353,24.257336 47.599613,23.694944 55.544407,31.201223 
	C57.089985,32.661495 58.619087,34.139198 60.610146,36.043396 
	C56.553524,40.327148 52.753124,44.340336 48.887806,48.422077 
	C44.678844,43.810459 40.906734,39.677483 36.765144,35.139679 
	C37.585415,34.406620 39.253326,32.916046 41.198151,31.195019 
z"/>
<path fill="#88C361" opacity="1.000000" stroke="none" 
	d="
M82.054802,47.834644 
	C77.962608,44.132874 74.221703,40.454754 70.023544,36.327057 
	C73.842346,32.859245 77.130539,29.656187 80.703888,26.811317 
	C81.419518,26.241583 83.550560,26.596296 84.464333,27.279718 
	C88.019104,29.938402 91.346512,32.901093 95.461548,36.337818 
	C90.922066,40.343578 86.664078,44.100937 82.054802,47.834644 
z"/>
</svg>